<svg width="20" height="20" viewBox="0 0 20 20" fill="none" xmlns="http://www.w3.org/2000/svg">
<path fill-rule="evenodd" clip-rule="evenodd" d="M15.6749 5.99563C15.886 6.21181 15.886 6.5623 15.6749 6.77847L8.61792 14.0047C8.40681 14.2209 8.06453 14.2209 7.85342 14.0047L4.32492 10.3916C4.11381 10.1754 4.11381 9.82492 4.32492 9.60875C4.53603 9.39257 4.87831 9.39257 5.08943 9.60875L8.23567 12.8304L14.9104 5.99563C15.1215 5.77946 15.4638 5.77946 15.6749 5.99563Z" fill="#28906F"/>
<path fill-rule="evenodd" clip-rule="evenodd" d="M15.9134 5.76274C16.251 6.10842 16.251 6.66569 15.9134 7.01137L8.8564 14.2376C8.51451 14.5877 7.95684 14.5877 7.61494 14.2376L4.08644 10.6245C3.74886 10.2788 3.74886 9.72154 4.08644 9.37585C4.42834 9.02576 4.98601 9.02576 5.32791 9.37585L8.23567 12.3533L14.6719 5.76274C15.0138 5.41264 15.5715 5.41264 15.9134 5.76274ZM8.23567 12.8304L5.08943 9.60875C4.87831 9.39257 4.53603 9.39257 4.32492 9.60875C4.11381 9.82492 4.11381 10.1754 4.32492 10.3916L7.85342 14.0047C8.06453 14.2209 8.40681 14.2209 8.61792 14.0047L15.6749 6.77847C15.886 6.5623 15.886 6.21181 15.6749 5.99563C15.4638 5.77946 15.1215 5.77946 14.9104 5.99563L8.23567 12.8304Z" fill="#28906F"/>
</svg>
