<svg width="80" height="80" viewBox="0 0 80 80" fill="none" xmlns="http://www.w3.org/2000/svg">
<rect x="5" y="5" width="70" height="70" rx="35" stroke="url(#paint0_linear_1_70)" stroke-width="10"/>
<path d="M44.7867 40.5333V45.96C44.7867 46.44 44.7333 46.8933 44.6133 47.3067C44.12 49.2667 42.4933 50.4933 40.2533 50.4933H36.6267L32.6 53.1733C32 53.5867 31.2 53.1467 31.2 52.4267V50.4933C29.84 50.4933 28.7067 50.04 27.92 49.2533C27.12 48.4533 26.6667 47.32 26.6667 45.96V40.5333C26.6667 38 28.24 36.2533 30.6667 36.0267C30.84 36.0133 31.0133 36 31.2 36H40.2533C42.9733 36 44.7867 37.8133 44.7867 40.5333Z" fill="#0E0F11"/>
<path d="M47.6667 44.8C49.36 44.8 50.7867 44.24 51.7733 43.24C52.7733 42.2533 53.3333 40.8267 53.3333 39.1333V32.3333C53.3333 29.2 50.8 26.6667 47.6667 26.6667H36.3333C33.2 26.6667 30.6667 29.2 30.6667 32.3333V33.3333C30.6667 33.7067 30.96 34 31.3333 34H40.2533C43.8667 34 46.7867 36.92 46.7867 40.5333V44.1333C46.7867 44.5067 47.08 44.8 47.4533 44.8H47.6667Z" fill="#0E0F11"/>
<defs>
<linearGradient id="paint0_linear_1_70" x1="40" y1="0" x2="40" y2="80" gradientUnits="userSpaceOnUse">
<stop offset="0.355133" stop-color="#F3F7FB"/>
<stop offset="1" stop-color="#F3F7FB" stop-opacity="0.1"/>
</linearGradient>
</defs>
</svg>
