<svg width="80" height="80" viewBox="0 0 80 80" fill="none" xmlns="http://www.w3.org/2000/svg">
<rect x="5" y="5" width="70" height="70" rx="35" stroke="url(#paint0_linear_1_134)" stroke-width="10"/>
<path d="M52.7067 38.4933L50.68 36.4667C50.3333 36.12 50.0533 35.44 50.0533 34.96V32.08C50.0533 30.9067 49.0933 29.9467 47.92 29.9467H45.0533C44.5733 29.9467 43.8933 29.6667 43.5467 29.32L41.52 27.2933C40.6933 26.4667 39.3333 26.4667 38.5067 27.2933L36.4533 29.32C36.12 29.6667 35.44 29.9467 34.9467 29.9467H32.08C30.9067 29.9467 29.9467 30.9067 29.9467 32.08V34.9467C29.9467 35.4267 29.6667 36.1067 29.32 36.4533L27.2933 38.48C26.4667 39.3067 26.4667 40.6667 27.2933 41.4933L29.32 43.52C29.6667 43.8667 29.9467 44.5467 29.9467 45.0267V47.8933C29.9467 49.0667 30.9067 50.0267 32.08 50.0267H34.9467C35.4267 50.0267 36.1067 50.3067 36.4533 50.6533L38.48 52.68C39.3067 53.5067 40.6667 53.5067 41.4933 52.68L43.52 50.6533C43.8667 50.3067 44.5467 50.0267 45.0267 50.0267H47.8933C49.0667 50.0267 50.0267 49.0667 50.0267 47.8933V45.0267C50.0267 44.5467 50.3067 43.8667 50.6533 43.52L52.68 41.4933C53.5467 40.68 53.5467 39.32 52.7067 38.4933ZM34.6667 36C34.6667 35.2667 35.2667 34.6667 36 34.6667C36.7333 34.6667 37.3333 35.2667 37.3333 36C37.3333 36.7333 36.7467 37.3333 36 37.3333C35.2667 37.3333 34.6667 36.7333 34.6667 36ZM36.7067 44.7067C36.5067 44.9067 36.2533 45 36 45C35.7467 45 35.4933 44.9067 35.2933 44.7067C34.9067 44.32 34.9067 43.68 35.2933 43.2933L43.2933 35.2933C43.68 34.9067 44.32 34.9067 44.7067 35.2933C45.0933 35.68 45.0933 36.32 44.7067 36.7067L36.7067 44.7067ZM44 45.3333C43.2533 45.3333 42.6533 44.7333 42.6533 44C42.6533 43.2667 43.2533 42.6667 43.9867 42.6667C44.72 42.6667 45.32 43.2667 45.32 44C45.32 44.7333 44.7333 45.3333 44 45.3333Z" fill="#0E0F11"/>
<defs>
<linearGradient id="paint0_linear_1_134" x1="40" y1="0" x2="40" y2="80" gradientUnits="userSpaceOnUse">
<stop offset="0.355133" stop-color="#F3F7FB"/>
<stop offset="1" stop-color="#F3F7FB" stop-opacity="0.1"/>
</linearGradient>
</defs>
</svg>
